<svg xmlns="http://www.w3.org/2000/svg" height="800" width="1200" viewBox="-60 -46.0225 520 276.135"><path d="M126.311 6.735c-32.291 3.902-62.668 12.627-89.97 28.71C17.805 47.597 2.073 66.65 2.27 90.528c-1.294 23.877 13.154 43.841 31.897 56.261 64.593 37.632 147.919 38.718 225.428 31.794l8.093-.683s118.732-8.683 129.268-74.776c4.337-26.578-8.104-49.565-28.834-63.786-14.004-9.449-24.757-13.723-24.757-13.723C279 .785 205.589-1.482 134.539 5.877l-8.228.858" fill="#fff"/><path d="M126.311 6.735c-32.291 3.902-62.668 12.627-89.97 28.71C17.805 47.597 2.073 66.65 2.27 90.528c-1.294 23.877 13.154 43.841 31.897 56.261 64.593 37.632 147.919 38.718 225.428 31.794l8.093-.683s118.732-8.683 129.268-74.776c4.337-26.578-8.104-49.565-28.834-63.786-14.004-9.449-24.757-13.723-24.757-13.723C279 .785 205.589-1.482 134.539 5.877z" fill="none" stroke="#49210b" stroke-width="4.378"/><path d="M323.753 69.786l21.445-27.706h-40.55c-2.412 1.956-1.563 5.05-1.035 8.331-23.898-16.28-61.353-26.857-103.404-26.857-21 0-40.85 2.608-58.383 7.286l-3.612-14.976c67.066-6.438 136.275-4.461 197.017 17.49 0 0 10.143 3.81 23.37 12.182 19.561 12.534 31.267 32.881 27.22 56.479-9.977 58.424-121.992 66.093-121.992 66.093l-3.581-14.551c41.947-11.478 70.626-34.527 70.626-61.178 0-7.927-2.432-15.514-7.12-22.593" fill="#8e4f1a"/><path d="M141.826 112.365H115.91c-5.123 8.735-19.333 16.249-13.258 27.406H72.214c25.387-26.806 48.767-57.089 71.485-85.923 2.618-4.057-4.875-4.378-.973-6.997h35.53l-4.884 45.363c-5.113 2.453-10.971 6.137-13.59 11.83-1.231 3.467-1.832 8.921.59 12.181 2.028 3.623 6.106 5.455 9.77 6.686-.828 6.075.61 12.171 4.244 16.86H128.68c1.843-5.113 10.143-5.475 11.178-11.944l1.967-15.462" fill="#49210b"/><path d="M130.089 96.126c4.088-6.345 10.184-13.237 15.038-19.913l-1.8 19.913h-13.238" fill="#fff"/><path d="M260.33 143.455c-7.328-1.252-16.622-6.55-18.071-13.216-1.532-6.644 2.815-24.394 4.233-36.566l-37.373 48.779c-7.327-.642-15.886-6.293-18.07-11.613-2.205-5.34-1.315-6.779-.756-10.215 6.25-2.484 19.581-9.335 13.94-21.848 11.365-3.332 4.927-15.182.425-13.475 3.074-2.132 1.087-9.925-6.913-10.412.166-1.024 3.529-12.947 3.374-16.942-.166-4.761-4.12-7.607-1.853-11.096h32.198c-3.86 19.313-7.514 38.677-11.146 58.197 11.353-12.834 21.94-29.072 32.073-43.883 3.737-6.252 1.014-10.67 0-14.314h33.74c-11.57 16.87-9.78 39.505-14.675 58.993 12.626-14.013 25.056-31.08 35.986-47.101 3.053-3.675-1.604-9.274 1.656-11.892h25.574l-74.342 96.604" fill="#49210b"/><path d="M206.75 90.496c-3.178-5.63-11.634.91-9.285 2.711 1.025.735 1.232.518 2.09-.114 1.243-.88 1.657-2.639 1.657-2.639 4.067-1.718 5.837 1.729 1.521 4.11-2.411 1.335-4.605 1.159-6.665.951-6.78-.755-9.936.518-14.272 3.85-2.412 2.133-4.575 5.704-2.764 8.105 1.75 2.38 5.475 1.749 8.093 1.335 3.105-1.428 4.337-4.119 2.96-5.589-1.314-1.521-6.51-1.387-9.108.217-.041-2.515 2.246-3.912 4.803-4.657 3.146-.61 8.207-.786 10.184 2.95 1.18 4.336-3.053 7.99-5.733 9.46-3.302 1.583-8.042 2.773-11.8.982-2.99-.983-5.122-4.698-4.14-7.68 1.864-6.985 9.792-13.495 17.636-11.156 0 0-4.564-1.46-4.999-4.192-.548-4.575 2.319-5.713 4.885-7.307 2.174-.404 5.93-1.573 7.494.983.776 1.75-.962 1.894-.962 1.894-1.594-1.873-3.582-1.117-4.824-.61-2.453 1.014-3.436 3.312-1.708 4.43 1.232.827 3.757.817 3.757.817 14.852-5.382-1.52-19.561-13.775-5.134-1.987 2.505-1.987 6.282-1.8 9.035-13.921 4.233-22.087 16.188-13.404 23.07 7.1 4.533 17.533 3.167 24.623 0 4.75-2.546 10.06-7.1 10.463-12.793-.052-.072-.073-.093-.093-.113 0-2.816-1.5-4.668-2.681-5.724l-.32-.404c5.072 1.005 10.133-3.217 8.166-6.788" fill="#d27b40"/><path d="M106.968 140.62c.32 1.324.858 2.7 1.624 4.098H59.97c7.317-7.69 14.448-15.577 21.506-23.69-7.628-8.736-11.933-18.372-11.933-28.65 0-25.356 26.123-47.556 64.996-59.53l-4.088-16.188c-30.47 3.467-59.128 11.188-84.92 25.42-17.46 10.732-32.28 27.612-32.105 48.736-1.18 21.145 12.41 38.79 30.097 49.803 60.929 33.254 139.556 34.247 212.687 28.13l-2.711-13.485c-16.28 3.84-34.31 5.95-53.29 5.95-36.545.002-69.52-7.905-93.241-20.595" fill="#d27b40"/></svg>