<svg xmlns="http://www.w3.org/2000/svg" height="800" width="1200" viewBox="-30.258 -50.52375 262.236 303.1425"><g transform="matrix(1.25 0 0 -1.25 -284.078 597.923)"><ellipse fill="#005ea6" cx="307.95" cy="-397.5" transform="scale(1 -1)" ry="80.838" rx="80.688"/><circle fill="#de5b9e" r="76.976" cx="307.83" cy="-397.53" transform="scale(1 -1)"/><ellipse fill="#fff" cx="307.7" cy="-397.25" transform="scale(1 -1)" ry="69.794" rx="70.244"/><path fill="#de5b9e" fill-rule="evenodd" d="M314.792 449.268l-1.328-60.004c2.56-.416 5.52-.528 8.448-.88 2.176 20.16 3.976 40.07 6.32 59.912zm-32.655-.364a62.704 62.704 0 01-1.815-.04l.585-12.955c2.413.085 4.56-.197 6.4-.586 3.326-.703 6.879-2.19 7.299-5.934.647-5.787-4.56-9.821-11.062-10.033l.375-7.15c4.22-.23 8.919-1.464 11.092-4.482.719-.998 1.231-2.368 1.24-4.067.013-2.808-1.455-5.545-3.46-7.249-2.511-2.128-6.593-3-10.58-2.776l-.045-4.72c11.112-.248 21.622 2.568 25.434 10.176.92 1.831 1.792 4.644 1.768 6.911-.056 3.906-1.8 6.478-3.6 8.124-2.233 2.048-5.16 3.338-8.082 4.227 5.663 2.613 10.922 7.088 10.01 14.618-.392 3.206-1.752 6.122-3.353 8.154-4.69 5.959-13.165 7.85-22.206 7.782z"/><path fill="#005ea6" fill-rule="evenodd" d="M278.13 446.489L262.8 444c3.47-18.56 7.146-36.274 10.614-54.537 2.154.112 4.236.136 6.416.28-.664 18.658-.984 38.975-1.7 56.745zm51.606-.233l-1.288-13.852c3.32-.737 6.856-2.045 8.472-4.858 1.504-2.612.896-6.27-.544-8.157-1.976-2.594-5.768-4.128-9.648-5.123-.328-2.387-.56-4.847-.92-7.21l11.168-17.816 7.168 1.312-6.912 18.502c7.12 2.888 12.52 7.428 14.312 14.192 1.856 7.028-.704 13.968-5.048 17.62-4.168 3.5-10.304 5.083-16.76 5.39zm-18.32-60.04c-.256-6.728-.8-13.232-1.12-19.912l7.176 6.936 3.808-5.336 3.176 2.168-4.256 5.8 3.584 3.464c-.896.744-1.784 1.488-2.624 2.304l-6.64-6.448c.24 3.624.6 7.144.728 10.848zm16.424-1.84c-1.256-.064-2.232-1.064-2.176-2.248.056-1.176 1.12-2.088 2.376-2.032 1.264.064 2.232 1.072 2.176 2.248-.048 1.184-1.12 2.088-2.376 2.032zm-54.975-.136l-3.744-.512 2.485-18.376 3.743.504-.2 1.48a7.023 7.023 0 013.658-.488c3.77.512 6.437 3.888 5.945 7.536-.492 3.64-3.96 6.184-7.73 5.68a7.043 7.043 0 01-3.398-1.44zm35.327-2.392c-.072-.008-.152-.016-.224-.032-3.214-1.056-6.497-2.52-5.522-6.176.236-.88.879-2.064 1.336-3.048.51-1.104 1.348-2.192 1.337-3.056-.017-1.424-1.84-2.128-3.142-2.392.437-.712.69-1.672 1.132-2.384 2.507.512 4.555 1.584 5.467 3.16 1.136 1.984-.12 3.752-1 5.64-.384.832-1.376 2.656-1.384 3.4-.008 1.376 1.728 2.192 3.032 2.376-.032.728-.736 1.688-1.032 2.512zm25.24-.4l-.688-14.712 3.856-.16.232 6.416 8.76-8.904.688 14.712-3.856.16-.232-6.408zm-36.772-2.44l-.005-1.552a7.043 7.043 0 01-3.467 1.264c-3.792.32-7.126-2.4-7.434-6.064-.307-3.664 2.527-6.904 6.319-7.224a7.077 7.077 0 013.628.664l-.124-1.48 3.765-.312 1.082 14.384zm33.38 0l-3.856-.128.4-12.336 3.864.128zm-51.867-2.464c1.537-.088 2.834-1.168 3.034-2.64.227-1.688-1.064-3.264-2.88-3.504-1.816-.248-3.478.928-3.706 2.608-.228 1.688 1.064 3.264 2.88 3.512.226.024.452.032.672.024zm14.717-1.392c1.825-.152 3.195-1.656 3.053-3.352-.143-1.696-1.745-2.952-3.57-2.8-1.827.152-3.196 1.656-3.054 3.352.143 1.696 1.745 2.952 3.57 2.8zm16.102-9.592l-3.408-.096.472-16.736 3.408.096-.04 1.344a6.314 6.314 0 013.24-.784c3.432.096 6.152 2.872 6.056 6.192-.088 3.312-2.96 5.936-6.392 5.84a6.361 6.361 0 01-3.192-.96zm13.496 0c-1.152.064-2.136-.728-2.2-1.776-.064-1.048.816-1.952 1.96-2.024 1.152-.072 2.128.72 2.2 1.768.064 1.048-.816 1.96-1.96 2.032zm3.816-.736l-.312-14.608 3.672-.152-.072 5.944 8.248-8.768.392 14.08-3.408.072-.224-6.096zm-34.002-1.816l-.452-16.744 3.41-.088.036 1.344a6.34 6.34 0 013.189-.96c3.434-.096 6.3 2.528 6.39 5.848.088 3.312-2.631 6.088-6.065 6.184a6.306 6.306 0 01-3.236-.792l.137 5.112zm-17.973-.208l-4.261-.384 1.436-15.6 4.182.376-.579 6.288c-.36 2.872.799 5.36 3.803 4.992l-.327 3.864c-1.383.264-3.563-.536-4.121-1.168zm71.255-.096c-2.92-.488-5.296-1.832-5.8-3.888-.424-1.76.72-3.36 1.352-4.872.392-.944 1.376-2.656 1.392-3.488.016-1.488-1.768-2.104-3.016-2.36.296-.904.648-1.72 1.024-2.504 2.424.384 4.264 1.32 5.16 2.648 1.32 1.96-.04 4.464-.872 6.432-.488 1.16-1.272 2.456-1.248 3.28.048 1.448 1.84 1.984 3.032 2.248-.288.912-.704 1.648-1.024 2.504zm-25.24-1.432l-.68-11.056 3.464-.216.68 11.056zm30.024-1.248a2.987 2.987 0 01-1.064-.272 2.634 2.634 0 01-1.136-.976 2.893 2.893 0 01-.488-1.408 2.88 2.88 0 01.28-1.448c.216-.464.544-.84.976-1.128.432-.28.904-.44 1.4-.48a2.97 2.97 0 011.448.28c.464.224.84.544 1.128.984.28.432.44.896.472 1.392a2.91 2.91 0 01-.28 1.456c-.224.48-.56.856-.992 1.128-.432.28-.888.432-1.376.464a1.9 1.9 0 01-.368.008zm-66.136-.4c-.214-.008-.431-.032-.649-.056-3.475-.472-5.941-3.528-5.498-6.816.445-3.28 3.633-5.576 7.11-5.104 3.475.472 5.942 3.528 5.498 6.808-.417 3.08-3.245 5.288-6.461 5.168zm66.464-.176c.392-.024.76-.152 1.112-.368.344-.224.608-.52.792-.904.184-.384.256-.768.232-1.176a2.437 2.437 0 00-.384-1.12 2.22 2.22 0 00-.912-.784 2.267 2.267 0 00-1.16-.224 2.24 2.24 0 00-1.12.384 2.15 2.15 0 00-.784.904c-.176.376-.248.76-.224 1.16.032.408.16.784.392 1.136.232.352.536.608.912.784.368.168.752.24 1.144.208zm-1.344-.704l-.216-3.008.616-.048.088 1.24.16-.016a.648.648 0 00.416-.16c.104-.088.232-.304.376-.648l.216-.504.768-.056-.312.64c-.112.224-.184.344-.2.376-.08.12-.144.208-.192.248a.575.575 0 01-.2.128.96.96 0 01.616.248c.152.144.24.32.256.544a.838.838 0 01-.352.744c-.104.072-.256.12-.464.152-.064.016-.392.04-.968.08zm.576-.52l.256-.016c.344-.024.56-.056.648-.088a.446.446 0 00.2-.16.362.362 0 00.056-.224.403.403 0 00-.096-.232.371.371 0 00-.208-.128c-.088-.016-.304-.016-.664.008l-.248.016zm-37.512-.04c1.656.048 3.032-1.16 3.08-2.704.04-1.536-1.272-2.816-2.92-2.864-1.656-.048-3.04 1.16-3.08 2.696-.048 1.536 1.264 2.824 2.92 2.872zm-27.76-1.68c1.497-.072 2.754-1.08 2.942-2.464.1-.744-.123-1.488-.628-2.104-.536-.656-1.316-1.072-2.194-1.192-1.77-.24-3.382.848-3.596 2.432-.213 1.576 1.053 3.056 2.822 3.296.221.032.44.04.653.032zm14.066-1.144c1.654-.048 2.965-1.328 2.924-2.864-.042-1.544-1.42-2.752-3.073-2.712-1.655.048-2.966 1.336-2.924 2.872.041 1.536 1.42 2.752 3.073 2.704z"/></g></svg>