<svg xmlns="http://www.w3.org/2000/svg" height="800" width="1200" viewBox="-13.56519 -18.605625 117.56498 111.63375"><path d="M23.1032.0004c9.433 0 17.5281 3.8022 21.198 6.6177.646.4957 1.0223.4372 1.5183.1072C48.2646 5.0923 55.6328.0622 65.7803.0622c12.2505 0 24.6543 6.1898 24.6543 19.6758 0 8.2552-5.6303 16.8688-15.289 22.7463-2.4385 1.493-5.3 2.7695-8.3667 3.8673-1.7498.6331-2.5221-.09-.6848-1.452 4.525-3.3639 16.1204-12.2101 16.1204-23.2829 0-7.5223-6.9742-15.0413-19.0082-15.0413-9.1799 0-15.9672 5.146-17.2381 6.0117-.6539.4463-1.0808.3734-1.6347-.1157-3.326-2.9556-10.085-6.1326-17.9261-6.1326-9.566 0-18.1886 5.257-18.1886 14.6107 0 17.0456 29.6109 24.052 36.7949 24.052 1.786 0 17.6413-5.5246 17.6413-18.8364 0-4.7068-2.924-7.8043-6.786-7.8043-5.0455 0-7.9504 4.238-9.9173 6.6006-.4473.5384-1.138.7803-1.5662-.003-1.7426-3.1705-5.16-6.692-9.8186-6.692-4.137 0-6.6097 2.9983-6.6097 6.2943 0 7.7656 10.8066 12.5887 15.8547 14.3281.9755.3326.9643 1.3765-.404 1.2444-7.1787-.6817-25.0101-6.101-25.0101-17.6701 0-4.7758 4.116-10.0868 12.3255-10.0868 5.5257 0 10.7632 3.0332 13.8457 6.742.302.361.8006.311 1.069.0368.271-.2642 6.7018-6.5533 14.3831-6.5533 5.4928 0 11.4335 3.7464 11.4335 11.6467 0 8.1612-7.1472 16.3396-13.1714 20.0833-6.1809 3.8351-12.0756 5.5633-13.534 5.4476C20.9917 47.8395 0 34.1011 0 17.9114-.0013 9.9388 6.0756 0 23.1032 0zm58.3679 73.9858c-2.3382 0-3.9429-.9897-5.3138-2.9245l2.5507-2.4922c.6617.8714 1.5348 1.7181 2.6923 1.7181.8014 0 1.5572-.6052 1.5572-1.4747 0-.8943-.589-1.3544-1.3457-1.6207l-1.63-.5575c-2.1732-.7493-3.6838-2.3462-3.6838-4.7898 0-2.9265 2.1238-5.394 5.0295-5.394 2.316 0 3.8032 1.138 5.149 2.9753l-2.573 2.5886c-.591-.8714-1.4175-1.8145-2.5275-1.8145-.8489 0-1.4873.629-1.4873 1.5005 0 .8944.7558 1.281 1.465 1.5473l1.6998.6051c2.1257.7493 3.4491 2.4416 3.4491 4.7401v.0737c0 2.8778-2.1733 5.3194-5.0315 5.3194zM70.8086 63.4895l-2.2664-1.2083 2.6913-6.7742 3.1192 1.6456zM58.482 73.7706V56.6935h3.614v13.4967h5.503v3.5804zm-12.9803 0V56.6935h3.612v13.4967h5.505v3.5804zm-3.4093-1.0166L33.803 56.0157 25.4438 72.754l3.2346 1.6208 1.4408-3.2664h7.3211l1.4398 3.2177zm-6.2355-4.9596h-4.2262l2.1257-4.7163zm-17.1707 6.628l-3.9206-9.5774-3.9206 9.5775-6.9428-16.8347 3.3055-1.595 3.8265 10.1818 3.7547-10.2324 3.9196 10.2324 3.8265-10.1817 3.093 1.57z" fill="#f40505" clip-rule="evenodd" fill-rule="evenodd"/></svg>