<svg id="Layer_5" enable-background="new 0 0 64 64" height="512" viewBox="0 0 64 64" width="512" xmlns="http://www.w3.org/2000/svg"><g><g><g><path d="m33.86 2.51c-.56-.34-1.21-.51-1.86-.51s-1.3.17-1.86.51l-28.14 16.49v1h7v29h29.394c1.003 0 1.94-.501 2.496-1.336l1.11-1.664c1.82-2.43 4.73-4 8-4h5v-22h7v-1z" fill="#cf9e76"/></g><g><circle cx="40" cy="13" fill="#e6e9ed" r="2"/></g><g><circle cx="32" cy="13" fill="#e6e9ed" r="2"/></g><g><circle cx="24" cy="13" fill="#e6e9ed" r="2"/></g><g><path d="m42 43v3c-.34.45-.64.93-.9 1.44-.5.98-1.53 1.56-2.63 1.56h-16.47v-6h4 4 4 4z" fill="#ffeaa7"/></g><g><path d="m38 43h-4-4-4-4v-6c-2.76 0-5-2.24-5-5s2.24-5 5-5c.77 0 1.49.19 2.15.5.7-3.7 3.94-6.5 7.85-6.5s7.15 2.8 7.85 6.5c.66-.31 1.38-.5 2.15-.5 2.76 0 5 2.24 5 5s-2.24 5-5 5v6z" fill="#fcd770"/></g><g><path d="m61.41 42.59c.37.36.59.86.59 1.41 0 1.1-.9 2-2 2h-8c-.55 0-1.05.22-1.41.59-.37.36-.59.86-.59 1.41 0 1.1.9 2 2 2h8c.55 0 1.05.22 1.41.59.37.36.59.86.59 1.41 0 1.1-.9 2-2 2h-8c-.55 0-1.05.22-1.41.59-.37.36-.59.86-.59 1.41 0 1.1.9 2 2 2h8c.55 0 1.05.22 1.41.59.37.36.59.86.59 1.41 0 1.1-.9 2-2 2h-10c-3.88 0-7.25-2.21-8.9-5.44-.5-.98-1.53-1.56-2.63-1.56h-33.47c-.83 0-1.58-.34-2.12-.88s-.88-1.29-.88-2.12c0-1.66 1.34-3 3-3h4 13 16.47c1.1 0 2.13-.58 2.63-1.56.26-.51.56-.99.9-1.44 1.82-2.43 4.73-4 8-4h5 5c.55 0 1.05.22 1.41.59z" fill="#ccd1d9"/></g></g><g><path d="m63 21v-2.573l-28.632-16.783c-1.436-.842-3.301-.842-4.736 0l-28.632 16.783v2.573h7v27h-3c-2.206 0-4 1.794-4 4s1.794 4 4 4h33.472c.739 0 1.421.397 1.736 1.012 1.893 3.693 5.645 5.988 9.792 5.988h10c1.654 0 3-1.346 3-3s-1.346-3-3-3h-8c-.552 0-1-.448-1-1s.448-1 1-1h8c1.654 0 3-1.346 3-3s-1.346-3-3-3h-8c-.552 0-1-.448-1-1s.448-1 1-1h8c1.654 0 3-1.346 3-3s-1.346-3-3-3h-4v-20zm-2 23c0 .552-.448 1-1 1h-8c-1.654 0-3 1.346-3 3s1.346 3 3 3h8c.552 0 1 .448 1 1s-.448 1-1 1h-8c-1.654 0-3 1.346-3 3s1.346 3 3 3h8c.552 0 1 .448 1 1s-.448 1-1 1h-10c-3.394 0-6.464-1.878-8.013-4.901-.665-1.294-2.011-2.099-3.515-2.099h-33.472c-1.103 0-2-.897-2-2s.897-2 2-2h33.472c1.504 0 2.851-.805 3.516-2.1 1.548-3.022 4.618-4.9 8.012-4.9h10c.552 0 1 .448 1 1zm-20-8v6h-2v-6h-2v6h-2v-6h-2v6h-2v-6h-2v6h-2v-6h-2v6h-2v-6h-1c-2.206 0-4-1.794-4-4s1.794-4 4-4c.577 0 1.154.136 1.715.403l1.171.56.242-1.275c.625-3.296 3.516-5.688 6.872-5.688s6.247 2.392 6.872 5.688l.242 1.275 1.171-.56c.561-.267 1.138-.403 1.715-.403 2.206 0 4 1.794 4 4s-1.794 4-4 4zm-18 8h18v1.673c-.291.415-.556.854-.792 1.314-.315.616-.997 1.013-1.736 1.013h-15.472zm27-3c-2.613 0-5.067.914-7 2.512v-5.595c2.834-.478 5-2.949 5-5.917 0-3.309-2.691-6-6-6-.489 0-.976.063-1.453.187-1.196-3.646-4.623-6.187-8.547-6.187s-7.351 2.541-8.547 6.187c-.477-.124-.964-.187-1.453-.187-3.309 0-6 2.691-6 6 0 2.968 2.166 5.439 5 5.917v10.083h-11v-29h-6.022l26.666-15.632c.822-.482 1.891-.482 2.713 0l26.665 15.632h-6.022v22z"/><path d="m24 10c-1.654 0-3 1.346-3 3s1.346 3 3 3 3-1.346 3-3-1.346-3-3-3zm0 4c-.552 0-1-.448-1-1s.448-1 1-1 1 .448 1 1-.448 1-1 1z"/><path d="m32 10c-1.654 0-3 1.346-3 3s1.346 3 3 3 3-1.346 3-3-1.346-3-3-3zm0 4c-.552 0-1-.448-1-1s.448-1 1-1 1 .448 1 1-.448 1-1 1z"/><path d="m40 10c-1.654 0-3 1.346-3 3s1.346 3 3 3 3-1.346 3-3-1.346-3-3-3zm0 4c-.552 0-1-.448-1-1s.448-1 1-1 1 .448 1 1-.448 1-1 1z"/><path d="m12 44h2v2h-2z"/><path d="m12 36h2v2h-2z"/><path d="m12 40h2v2h-2z"/><path d="m50 19h2v2h-2z"/><path d="m50 27h2v2h-2z"/><path d="m50 23h2v2h-2z"/></g></g></svg>